<svg width="44" height="44" viewBox="0 0 44 44" fill="none" xmlns="http://www.w3.org/2000/svg">
<circle cx="22" cy="22" r="22" fill="#3DA9FC"/>
<path d="M27 24C27.2652 24 27.5196 23.8946 27.7071 23.7071C27.8946 23.5196 28 23.2652 28 23C28 22.7348 27.8946 22.4804 27.7071 22.2929C27.5196 22.1054 27.2652 22 27 22C26.7348 22 26.4804 22.1054 26.2929 22.2929C26.1054 22.4804 26 22.7348 26 23C26 23.2652 26.1054 23.5196 26.2929 23.7071C26.4804 23.8946 26.7348 24 27 24ZM27 28C27.2652 28 27.5196 27.8946 27.7071 27.7071C27.8946 27.5196 28 27.2652 28 27C28 26.7348 27.8946 26.4804 27.7071 26.2929C27.5196 26.1054 27.2652 26 27 26C26.7348 26 26.4804 26.1054 26.2929 26.2929C26.1054 26.4804 26 26.7348 26 27C26 27.2652 26.1054 27.5196 26.2929 27.7071C26.4804 27.8946 26.7348 28 27 28ZM23 23C23 23.2652 22.8946 23.5196 22.7071 23.7071C22.5196 23.8946 22.2652 24 22 24C21.7348 24 21.4804 23.8946 21.2929 23.7071C21.1054 23.5196 21 23.2652 21 23C21 22.7348 21.1054 22.4804 21.2929 22.2929C21.4804 22.1054 21.7348 22 22 22C22.2652 22 22.5196 22.1054 22.7071 22.2929C22.8946 22.4804 23 22.7348 23 23ZM23 27C23 27.2652 22.8946 27.5196 22.7071 27.7071C22.5196 27.8946 22.2652 28 22 28C21.7348 28 21.4804 27.8946 21.2929 27.7071C21.1054 27.5196 21 27.2652 21 27C21 26.7348 21.1054 26.4804 21.2929 26.2929C21.4804 26.1054 21.7348 26 22 26C22.2652 26 22.5196 26.1054 22.7071 26.2929C22.8946 26.4804 23 26.7348 23 27ZM17 24C17.2652 24 17.5196 23.8946 17.7071 23.7071C17.8946 23.5196 18 23.2652 18 23C18 22.7348 17.8946 22.4804 17.7071 22.2929C17.5196 22.1054 17.2652 22 17 22C16.7348 22 16.4804 22.1054 16.2929 22.2929C16.1054 22.4804 16 22.7348 16 23C16 23.2652 16.1054 23.5196 16.2929 23.7071C16.4804 23.8946 16.7348 24 17 24ZM17 28C17.2652 28 17.5196 27.8946 17.7071 27.7071C17.8946 27.5196 18 27.2652 18 27C18 26.7348 17.8946 26.4804 17.7071 26.2929C17.5196 26.1054 17.2652 26 17 26C16.7348 26 16.4804 26.1054 16.2929 26.2929C16.1054 26.4804 16 26.7348 16 27C16 27.2652 16.1054 27.5196 16.2929 27.7071C16.4804 27.8946 16.7348 28 17 28Z" fill="white"/>
<path fill-rule="evenodd" clip-rule="evenodd" d="M17 11.75C17.1989 11.75 17.3897 11.829 17.5303 11.9697C17.671 12.1103 17.75 12.3011 17.75 12.5V13.263C18.412 13.25 19.141 13.25 19.943 13.25H24.056C24.859 13.25 25.588 13.25 26.25 13.263V12.5C26.25 12.3011 26.329 12.1103 26.4696 11.9697C26.6103 11.829 26.8011 11.75 27 11.75C27.1989 11.75 27.3897 11.829 27.5303 11.9697C27.671 12.1103 27.75 12.3011 27.75 12.5V13.327C28.01 13.347 28.256 13.372 28.489 13.403C29.661 13.561 30.61 13.893 31.359 14.641C32.107 15.39 32.439 16.339 32.597 17.511C32.75 18.651 32.75 20.106 32.75 21.944V24.056C32.75 25.894 32.75 27.35 32.597 28.489C32.439 29.661 32.107 30.61 31.359 31.359C30.61 32.107 29.661 32.439 28.489 32.597C27.349 32.75 25.894 32.75 24.056 32.75H19.945C18.107 32.75 16.651 32.75 15.512 32.597C14.34 32.439 13.391 32.107 12.642 31.359C11.894 30.61 11.562 29.661 11.404 28.489C11.251 27.349 11.251 25.894 11.251 24.056V21.944C11.251 20.106 11.251 18.65 11.404 17.511C11.562 16.339 11.894 15.39 12.642 14.641C13.391 13.893 14.34 13.561 15.512 13.403C15.745 13.372 15.992 13.347 16.251 13.327V12.5C16.251 12.3013 16.3299 12.1106 16.4703 11.97C16.6107 11.8294 16.8012 11.7503 17 11.75ZM15.71 14.89C14.705 15.025 14.125 15.279 13.702 15.702C13.279 16.125 13.025 16.705 12.89 17.711C12.867 17.881 12.848 18.061 12.832 18.25H31.168C31.152 18.06 31.133 17.881 31.11 17.71C30.975 16.705 30.721 16.125 30.298 15.702C29.875 15.279 29.295 15.025 28.289 14.89C27.262 14.752 25.907 14.75 24 14.75H20C18.093 14.75 16.739 14.752 15.71 14.89ZM12.75 22C12.75 21.146 12.75 20.403 12.763 19.75H31.237C31.25 20.403 31.25 21.146 31.25 22V24C31.25 25.907 31.248 27.262 31.11 28.29C30.975 29.295 30.721 29.875 30.298 30.298C29.875 30.721 29.295 30.975 28.289 31.11C27.262 31.248 25.907 31.25 24 31.25H20C18.093 31.25 16.739 31.248 15.71 31.11C14.705 30.975 14.125 30.721 13.702 30.298C13.279 29.875 13.025 29.295 12.89 28.289C12.752 27.262 12.75 25.907 12.75 24V22Z" fill="white"/>
</svg>
