<svg width="24" height="24" viewBox="0 0 24 24" fill="none" xmlns="http://www.w3.org/2000/svg">
<path fill-rule="evenodd" clip-rule="evenodd" d="M10.53 5.47007C10.6704 5.6107 10.7493 5.80132 10.7493 6.00007C10.7493 6.19882 10.6704 6.38945 10.53 6.53007L5.80995 11.2501H20C20.1989 11.2501 20.3896 11.3291 20.5303 11.4697C20.6709 11.6104 20.75 11.8012 20.75 12.0001C20.75 12.199 20.6709 12.3897 20.5303 12.5304C20.3896 12.6711 20.1989 12.7501 20 12.7501H5.80995L10.53 17.4701C10.6036 17.5387 10.6627 17.6215 10.7037 17.7135C10.7447 17.8055 10.7668 17.9048 10.7685 18.0056C10.7703 18.1063 10.7518 18.2063 10.7141 18.2997C10.6764 18.3931 10.6202 18.4779 10.549 18.5491C10.4778 18.6203 10.3929 18.6765 10.2995 18.7142C10.2062 18.7519 10.1061 18.7704 10.0054 18.7687C9.90473 18.7669 9.80541 18.7448 9.71341 18.7039C9.62141 18.6629 9.53861 18.6038 9.46995 18.5301L3.46995 12.5301C3.3295 12.3894 3.25061 12.1988 3.25061 12.0001C3.25061 11.8013 3.3295 11.6107 3.46995 11.4701L9.46995 5.47007C9.61058 5.32962 9.8012 5.25073 9.99995 5.25073C10.1987 5.25073 10.3893 5.32962 10.53 5.47007Z" fill="#3DA9FC"/>
</svg>
