<svg width="200" height="140" viewBox="0 0 200 140" fill="none" xmlns="http://www.w3.org/2000/svg">
<path d="M22.5 17.5C22.5 12.8587 24.3437 8.40752 27.6256 5.12563C30.9075 1.84374 35.3587 0 40 0C44.6413 0 49.0925 1.84374 52.3744 5.12563C55.6563 8.40752 57.5 12.8587 57.5 17.5C57.5 22.1413 55.6563 26.5925 52.3744 29.8744C49.0925 33.1563 44.6413 35 40 35C35.3587 35 30.9075 33.1563 27.6256 29.8744C24.3437 26.5925 22.5 22.1413 22.5 17.5ZM20 66.7812C16.875 70.2812 15 74.9375 15 80C15 85.0625 16.875 89.7188 20 93.2188V66.7812ZM65.125 51.375C55.8438 59.5938 50 71.625 50 85C50 95.7188 53.75 105.562 60 113.281V120C60 125.531 55.5312 130 50 130H30C24.4688 130 20 125.531 20 120V111.625C8.1875 106 0 93.9688 0 80C0 60.6562 15.6562 45 35 45H45C52.5 45 59.4375 47.3438 65.125 51.3438V51.375ZM140 120V113.281C146.25 105.562 150 95.7188 150 85C150 71.625 144.156 59.5938 134.875 51.3438C140.562 47.3438 147.5 45 155 45H165C184.344 45 200 60.6562 200 80C200 93.9688 191.812 106 180 111.625V120C180 125.531 175.531 130 170 130H150C144.469 130 140 125.531 140 120ZM142.5 17.5C142.5 12.8587 144.344 8.40752 147.626 5.12563C150.908 1.84374 155.359 0 160 0C164.641 0 169.092 1.84374 172.374 5.12563C175.656 8.40752 177.5 12.8587 177.5 17.5C177.5 22.1413 175.656 26.5925 172.374 29.8744C169.092 33.1563 164.641 35 160 35C155.359 35 150.908 33.1563 147.626 29.8744C144.344 26.5925 142.5 22.1413 142.5 17.5ZM180 66.7812V93.25C183.125 89.7188 185 85.0938 185 80.0312C185 74.9688 183.125 70.3125 180 66.8125V66.7812ZM100 0C105.304 0 110.391 2.10714 114.142 5.85786C117.893 9.60859 120 14.6957 120 20C120 25.3043 117.893 30.3914 114.142 34.1421C110.391 37.8929 105.304 40 100 40C94.6957 40 89.6086 37.8929 85.8579 34.1421C82.1071 30.3914 80 25.3043 80 20C80 14.6957 82.1071 9.60859 85.8579 5.85786C89.6086 2.10714 94.6957 0 100 0ZM75 85C75 90.0625 76.875 94.6875 80 98.2188V71.7812C76.875 75.3125 75 79.9375 75 85ZM120 71.7812V98.25C123.125 94.7188 125 90.0938 125 85.0312C125 79.9688 123.125 75.3125 120 71.8125V71.7812ZM140 85C140 98.9688 131.812 111 120 116.625V130C120 135.531 115.531 140 110 140H90C84.4688 140 80 135.531 80 130V116.625C68.1875 111 60 98.9688 60 85C60 65.6562 75.6562 50 95 50H105C124.344 50 140 65.6562 140 85Z" fill="url(#paint0_linear_28_104)"/>
<defs>
<linearGradient id="paint0_linear_28_104" x1="168.386" y1="-4.62595e-06" x2="80.4015" y2="165.878" gradientUnits="userSpaceOnUse">
<stop stop-color="#FFD600"/>
<stop offset="0.483349" stop-color="#FFD600" stop-opacity="0.758325"/>
<stop offset="1" stop-color="#FFD600" stop-opacity="0.5"/>
</linearGradient>
</defs>
</svg>
