<svg width="200" height="190" viewBox="0 0 200 190" fill="none" xmlns="http://www.w3.org/2000/svg">
<path d="M200 61.3686C200 130.656 107.33 186.739 103.384 189.055C102.344 189.675 101.181 190 100 190C98.8189 190 97.6562 189.675 96.6161 189.055C92.6696 186.739 0 130.656 0 61.3686C0.0165423 45.0983 5.85411 29.4996 16.232 17.9947C26.6099 6.48983 40.6806 0.0183387 55.3571 0C73.7946 0 89.9375 8.78957 100 23.6467C110.062 8.78957 126.205 0 144.643 0C159.319 0.0183387 173.39 6.48983 183.768 17.9947C194.146 29.4996 199.983 45.0983 200 61.3686Z" fill="url(#paint0_linear_28_105)"/>
<defs>
<linearGradient id="paint0_linear_28_105" x1="168.386" y1="-6.27807e-06" x2="31.6141" y2="190" gradientUnits="userSpaceOnUse">
<stop stop-color="#FF4550"/>
<stop offset="0.483349" stop-color="#FF4550" stop-opacity="0.758325"/>
<stop offset="1" stop-color="#FF4550" stop-opacity="0.5"/>
</linearGradient>
</defs>
</svg>
