<svg width="185" height="45" viewBox="0 0 185 45" fill="none" xmlns="http://www.w3.org/2000/svg">
<path d="M22.8775 28.8375C21.4075 30.0975 19.6825 31.1625 17.7025 32.0325C15.7225 32.8875 13.525 33.315 11.11 33.315C8.755 33.315 6.7675 32.835 5.1475 31.875C3.5275 30.9 2.305 29.5875 1.48 27.9375C0.655 26.2725 0.2425 24.4125 0.2425 22.3575C0.2425 19.7925 0.6625 17.355 1.5025 15.045C2.3575 12.735 3.55 10.6875 5.08 8.9025C6.61 7.1175 8.41 5.715 10.48 4.695C12.565 3.675 14.8375 3.165 17.2975 3.165C18.8125 3.165 20.26 3.375 21.64 3.795C23.02 4.2 24.22 4.83 25.24 5.685C26.275 6.525 27.0025 7.605 27.4225 8.925C26.7625 9.48 25.945 10.1025 24.97 10.7925C24.01 11.4675 23.0425 12.1125 22.0675 12.7275C21.0925 13.3425 20.245 13.845 19.525 14.235C19.525 14.115 19.4575 13.8825 19.3225 13.5375C19.2025 13.1775 19.015 12.795 18.76 12.39C18.505 11.985 18.1675 11.64 17.7475 11.355C17.3275 11.055 16.825 10.905 16.24 10.905C15.325 10.905 14.4925 11.19 13.7425 11.76C13.0075 12.315 12.37 13.0575 11.83 13.9875C11.305 14.9025 10.9 15.915 10.615 17.025C10.33 18.135 10.1875 19.2375 10.1875 20.3325C10.1875 21.4425 10.375 22.3725 10.75 23.1225C11.125 23.8575 11.785 24.225 12.73 24.225C13.255 24.225 13.8175 24.135 14.4175 23.955C15.0175 23.775 15.6475 23.505 16.3075 23.145C16.9675 22.77 17.635 22.3125 18.31 21.7725C18.865 22.2525 19.45 22.92 20.065 23.775C20.695 24.615 21.265 25.4925 21.775 26.4075C22.285 27.3225 22.6525 28.1325 22.8775 28.8375ZM33.6487 33.3375C31.0987 33.3375 29.0362 32.85 27.4612 31.875C25.8862 30.885 25.0987 29.1975 25.0987 26.8125C25.0987 25.1175 25.4662 23.6925 26.2012 22.5375C26.9512 21.3825 27.9487 20.46 29.1937 19.77C30.4537 19.08 31.8562 18.585 33.4012 18.285C34.9612 17.97 36.5587 17.8125 38.1937 17.8125C38.8237 17.8125 39.4462 17.865 40.0612 17.97C40.6912 18.06 41.2462 18.1875 41.7262 18.3525C42.2212 18.5025 42.5587 18.6675 42.7387 18.8475C42.7387 18.6825 42.7162 18.3675 42.6712 17.9025C42.6412 17.4375 42.5437 17.085 42.3787 16.845C42.0937 16.44 41.7037 16.125 41.2087 15.9C40.7287 15.675 40.0312 15.5625 39.1162 15.5625C38.4712 15.5625 37.7737 15.675 37.0237 15.9C36.2887 16.11 35.6137 16.3875 34.9987 16.7325C34.3837 17.0625 33.9187 17.4075 33.6037 17.7675L28.0462 13.4475C29.4562 12.0675 31.2937 10.95 33.5587 10.095C35.8237 9.225 38.1562 8.79 40.5562 8.79C43.6312 8.79 46.0237 9.3225 47.7337 10.3875C49.4437 11.4375 50.2987 13.32 50.2987 16.035C50.2987 16.875 50.2087 17.775 50.0287 18.735C49.8637 19.68 49.6612 20.6025 49.4212 21.5025C49.2412 22.1925 49.0912 22.86 48.9712 23.505C48.8512 24.15 48.7912 24.75 48.7912 25.305C48.7912 25.71 48.8587 25.98 48.9937 26.115C49.1287 26.25 49.3237 26.3175 49.5787 26.3175C49.9237 26.3175 50.2162 26.28 50.4562 26.205C50.7112 26.115 50.9437 25.995 51.1537 25.845L52.1662 31.7625C51.8512 32.0775 51.2812 32.4075 50.4562 32.7525C49.6312 33.0825 48.5962 33.2475 47.3512 33.2475C46.0162 33.2475 44.9887 32.8875 44.2687 32.1675C43.5637 31.4475 43.2112 30.3825 43.2112 28.9725C42.8812 29.7075 42.2737 30.4125 41.3887 31.0875C40.5037 31.7475 39.4012 32.2875 38.0812 32.7075C36.7762 33.1275 35.2987 33.3375 33.6487 33.3375ZM36.8887 26.88C37.4287 26.88 38.0212 26.8125 38.6662 26.6775C39.3262 26.5275 39.9337 26.3475 40.4887 26.1375C41.0437 25.9125 41.4412 25.6875 41.6812 25.4625C41.6812 25.2975 41.7037 25.05 41.7487 24.72C41.8087 24.375 41.8612 24.12 41.9062 23.955C41.6662 23.835 41.2012 23.73 40.5112 23.64C39.8212 23.535 39.1462 23.4825 38.4862 23.4825C38.0212 23.4825 37.5337 23.52 37.0237 23.595C36.5137 23.655 36.0337 23.76 35.5837 23.91C35.1487 24.06 34.7887 24.255 34.5037 24.495C34.2337 24.735 34.0987 25.02 34.0987 25.35C34.0987 25.86 34.3012 26.2425 34.7062 26.4975C35.1112 26.7525 35.8387 26.88 36.8887 26.88ZM62.3569 34.7325C60.3319 34.7325 58.6069 34.5075 57.1819 34.0575C55.7569 33.6225 54.6319 33.1425 53.8069 32.6175C52.9669 32.0925 52.4419 31.695 52.2319 31.425C52.3969 31.11 52.7269 30.615 53.2219 29.94C53.7169 29.25 54.2794 28.5 54.9094 27.69C55.5544 26.88 56.1844 26.13 56.7994 25.44C57.4294 24.735 57.9544 24.2175 58.3744 23.8875C58.9894 24.4425 59.6269 24.99 60.2869 25.53C60.9619 26.07 61.6369 26.5125 62.3119 26.8575C62.9869 27.2025 63.6244 27.375 64.2244 27.375C64.5694 27.375 64.8919 27.33 65.1919 27.24C65.5069 27.135 65.7619 26.9775 65.9569 26.7675C66.1519 26.5425 66.2494 26.25 66.2494 25.89C66.2494 25.365 65.8969 24.8625 65.1919 24.3825C64.4869 23.9025 63.6769 23.43 62.7619 22.965C61.9069 22.515 61.1344 21.9675 60.4444 21.3225C59.7544 20.6625 59.2069 19.8975 58.8019 19.0275C58.3969 18.1575 58.1944 17.1825 58.1944 16.1025C58.1944 14.6775 58.4944 13.4325 59.0944 12.3675C59.7094 11.3025 60.5344 10.425 61.5694 9.735C62.6194 9.03 63.8044 8.505 65.1244 8.16C66.4444 7.815 67.8244 7.6425 69.2644 7.6425C71.0344 7.6425 72.7219 7.8825 74.3269 8.3625C75.9469 8.8425 77.2144 9.48 78.1294 10.275C77.9494 10.59 77.5819 11.1 77.0269 11.805C76.4719 12.51 75.8194 13.275 75.0694 14.1C74.3344 14.925 73.5769 15.69 72.7969 16.395C72.4069 15.825 71.8144 15.285 71.0194 14.775C70.2394 14.265 69.4669 14.01 68.7019 14.01C68.4319 14.01 68.1544 14.0325 67.8694 14.0775C67.5844 14.1075 67.3144 14.175 67.0594 14.28C66.8194 14.385 66.6244 14.5275 66.4744 14.7075C66.3244 14.8875 66.2494 15.1125 66.2494 15.3825C66.2494 15.7575 66.4744 16.11 66.9244 16.44C67.3894 16.77 68.1244 17.19 69.1294 17.7C69.8644 18.06 70.6594 18.5775 71.5144 19.2525C72.3694 19.9125 73.1044 20.7375 73.7194 21.7275C74.3344 22.7025 74.6419 23.85 74.6419 25.17C74.6419 27.195 74.0569 28.92 72.8869 30.345C71.7169 31.77 70.1944 32.8575 68.3194 33.6075C66.4594 34.3575 64.4719 34.7325 62.3569 34.7325ZM83.0407 33.1125C82.6057 33.1875 82.0057 33.2475 81.2407 33.2925C80.4757 33.3375 79.6807 33.36 78.8557 33.36C77.8807 33.36 76.9882 33.3225 76.1782 33.2475C75.3682 33.1875 74.7907 33.0825 74.4457 32.9325C74.7607 32.1225 75.1507 31.0575 75.6157 29.7375C76.0657 28.4025 76.5457 26.895 77.0557 25.215C77.5807 23.52 78.0907 21.7425 78.5857 19.8825C79.1557 17.7975 79.6882 15.6675 80.1832 13.4925C80.6932 11.3025 81.1657 9.1875 81.6007 7.1475C82.0357 5.0925 82.4257 3.225 82.7707 1.545C82.8907 1.5 83.3107 1.425 84.0307 1.32C84.7657 1.215 85.6057 1.1025 86.5507 0.982498C87.5107 0.862498 88.4182 0.757498 89.2732 0.667499C90.1432 0.577499 90.7807 0.532498 91.1857 0.532498C91.1257 1.6575 90.9982 2.955 90.8032 4.425C90.6082 5.895 90.3457 7.515 90.0157 9.285C89.6857 11.04 89.2807 12.93 88.8007 14.955C89.4457 14.445 90.1807 14.0025 91.0057 13.6275C91.8457 13.2525 92.7157 12.9675 93.6157 12.7725C94.5157 12.5625 95.3707 12.4575 96.1807 12.4575C98.0257 12.4575 99.3682 12.8475 100.208 13.6275C101.063 14.3925 101.491 15.5325 101.491 17.0475C101.491 17.9475 101.326 19.08 100.996 20.445C100.681 21.81 100.268 23.2575 99.7582 24.7875C99.2632 26.3025 98.7382 27.7725 98.1832 29.1975C97.6282 30.6075 97.1182 31.8225 96.6532 32.8425C95.9782 32.9475 95.2957 33.03 94.6057 33.09C93.9157 33.15 93.2332 33.18 92.5582 33.18C91.0282 33.18 89.6632 33.0525 88.4632 32.7975C88.7482 32.1525 89.1082 31.29 89.5432 30.21C89.9782 29.13 90.4132 28.005 90.8482 26.835C91.2832 25.665 91.6507 24.6 91.9507 23.64C92.2507 22.68 92.4007 21.99 92.4007 21.57C92.4007 21.12 92.2807 20.7375 92.0407 20.4225C91.8007 20.1075 91.4407 19.95 90.9607 19.95C90.6007 19.95 90.2407 20.0025 89.8807 20.1075C89.5207 20.2125 89.1607 20.355 88.8007 20.535C88.4557 20.715 88.1107 20.925 87.7657 21.165C87.4357 21.405 87.1207 21.66 86.8207 21.93C86.5057 23.04 86.1832 24.135 85.8532 25.215C85.5232 26.295 85.1857 27.33 84.8407 28.32C84.5107 29.31 84.1882 30.2175 83.8732 31.0425C83.5732 31.8525 83.2957 32.5425 83.0407 33.1125ZM105.722 11.22C105.752 10.83 105.834 10.26 105.969 9.51C106.104 8.745 106.254 7.9425 106.419 7.1025C106.599 6.2625 106.764 5.5125 106.914 4.8525C107.064 4.1925 107.169 3.7575 107.229 3.5475C108.939 3.4125 110.859 3.3 112.989 3.21C115.134 3.105 117.294 3.0525 119.469 3.0525C121.149 3.0525 122.777 3.09 124.352 3.165C125.942 3.24 127.374 3.375 128.649 3.57C128.229 5.16 127.779 6.6225 127.299 7.9575C126.834 9.2775 126.429 10.2525 126.084 10.8825C125.814 10.8825 125.447 10.8825 124.982 10.8825C124.532 10.8825 124.029 10.8825 123.474 10.8825C122.934 10.8675 122.409 10.86 121.899 10.86C121.389 10.845 120.947 10.83 120.572 10.815C120.452 11.37 120.279 12.165 120.054 13.2C119.829 14.22 119.574 15.3825 119.289 16.6875C119.019 17.9925 118.727 19.3575 118.412 20.7825C118.112 22.1925 117.812 23.58 117.512 24.945C117.227 26.295 116.964 27.5325 116.724 28.6575C116.499 29.7825 116.312 30.705 116.162 31.425C116.012 32.145 115.922 32.565 115.892 32.685C115.097 32.805 114.092 32.91 112.877 33C111.662 33.105 110.454 33.18 109.254 33.225C108.069 33.285 107.102 33.315 106.352 33.315C106.547 32.445 106.772 31.4325 107.027 30.2775C107.297 29.1225 107.589 27.885 107.904 26.565C108.234 25.245 108.564 23.895 108.894 22.515C109.239 21.135 109.584 19.7775 109.929 18.4425C110.274 17.1075 110.604 15.855 110.919 14.685C111.114 13.98 111.294 13.32 111.459 12.705C111.639 12.075 111.804 11.505 111.954 10.995C111.474 11.04 110.979 11.0775 110.469 11.1075C109.974 11.1225 109.464 11.145 108.939 11.175C108.429 11.19 107.904 11.205 107.364 11.22C106.824 11.22 106.277 11.22 105.722 11.22ZM133.229 33.3375C130.679 33.3375 128.616 32.85 127.041 31.875C125.466 30.885 124.679 29.1975 124.679 26.8125C124.679 25.1175 125.046 23.6925 125.781 22.5375C126.531 21.3825 127.529 20.46 128.774 19.77C130.034 19.08 131.436 18.585 132.981 18.285C134.541 17.97 136.139 17.8125 137.774 17.8125C138.404 17.8125 139.026 17.865 139.641 17.97C140.271 18.06 140.826 18.1875 141.306 18.3525C141.801 18.5025 142.139 18.6675 142.319 18.8475C142.319 18.6825 142.296 18.3675 142.251 17.9025C142.221 17.4375 142.124 17.085 141.959 16.845C141.674 16.44 141.284 16.125 140.789 15.9C140.309 15.675 139.611 15.5625 138.696 15.5625C138.051 15.5625 137.354 15.675 136.604 15.9C135.869 16.11 135.194 16.3875 134.579 16.7325C133.964 17.0625 133.499 17.4075 133.184 17.7675L127.626 13.4475C129.036 12.0675 130.874 10.95 133.139 10.095C135.404 9.225 137.736 8.79 140.136 8.79C143.211 8.79 145.604 9.3225 147.314 10.3875C149.024 11.4375 149.879 13.32 149.879 16.035C149.879 16.875 149.789 17.775 149.609 18.735C149.444 19.68 149.241 20.6025 149.001 21.5025C148.821 22.1925 148.671 22.86 148.551 23.505C148.431 24.15 148.371 24.75 148.371 25.305C148.371 25.71 148.439 25.98 148.574 26.115C148.709 26.25 148.904 26.3175 149.159 26.3175C149.504 26.3175 149.796 26.28 150.036 26.205C150.291 26.115 150.524 25.995 150.734 25.845L151.746 31.7625C151.431 32.0775 150.861 32.4075 150.036 32.7525C149.211 33.0825 148.176 33.2475 146.931 33.2475C145.596 33.2475 144.569 32.8875 143.849 32.1675C143.144 31.4475 142.791 30.3825 142.791 28.9725C142.461 29.7075 141.854 30.4125 140.969 31.0875C140.084 31.7475 138.981 32.2875 137.661 32.7075C136.356 33.1275 134.879 33.3375 133.229 33.3375ZM136.469 26.88C137.009 26.88 137.601 26.8125 138.246 26.6775C138.906 26.5275 139.514 26.3475 140.069 26.1375C140.624 25.9125 141.021 25.6875 141.261 25.4625C141.261 25.2975 141.284 25.05 141.329 24.72C141.389 24.375 141.441 24.12 141.486 23.955C141.246 23.835 140.781 23.73 140.091 23.64C139.401 23.535 138.726 23.4825 138.066 23.4825C137.601 23.4825 137.114 23.52 136.604 23.595C136.094 23.655 135.614 23.76 135.164 23.91C134.729 24.06 134.369 24.255 134.084 24.495C133.814 24.735 133.679 25.02 133.679 25.35C133.679 25.86 133.881 26.2425 134.286 26.4975C134.691 26.7525 135.419 26.88 136.469 26.88ZM167.877 26.835C164.937 26.835 162.657 26.49 161.037 25.8C159.417 25.095 158.284 24.1725 157.639 23.0325C157.009 21.8925 156.694 20.67 156.694 19.365C156.694 16.995 157.332 15.0675 158.607 13.5825C159.897 12.0825 161.599 10.9875 163.714 10.2975C165.829 9.5925 168.124 9.24 170.599 9.24C174.064 9.24 176.562 9.885 178.092 11.175C179.637 12.465 180.409 14.2125 180.409 16.4175C180.409 18.6675 179.854 20.5725 178.744 22.1325C177.634 23.6775 176.134 24.8475 174.244 25.6425C172.354 26.4375 170.232 26.835 167.877 26.835ZM162.274 44.2275C159.979 44.2275 157.969 44.025 156.244 43.62C154.534 43.23 153.207 42.5625 152.262 41.6175C151.302 40.6725 150.822 39.375 150.822 37.725C150.822 36.3 151.189 35.04 151.924 33.945C152.659 32.865 153.649 31.95 154.894 31.2C156.139 30.435 157.527 29.835 159.057 29.4C160.587 28.965 162.147 28.6875 163.737 28.5675C164.652 28.4925 165.537 28.44 166.392 28.41C167.262 28.365 168.492 28.3425 170.082 28.3425C172.227 28.3425 173.884 28.815 175.054 29.76C176.239 30.705 176.832 32.13 176.832 34.035C176.832 35.88 176.442 37.4475 175.662 38.7375C174.882 40.0275 173.817 41.0775 172.467 41.8875C171.117 42.6975 169.564 43.29 167.809 43.665C166.069 44.04 164.224 44.2275 162.274 44.2275ZM163.489 38.94C164.299 38.94 165.064 38.835 165.784 38.625C166.519 38.43 167.112 38.1225 167.562 37.7025C168.027 37.2975 168.259 36.7875 168.259 36.1725C168.259 35.8275 168.154 35.55 167.944 35.34C167.734 35.13 167.449 34.9725 167.089 34.8675C166.729 34.7775 166.324 34.7325 165.874 34.7325C165.439 34.7325 164.892 34.7325 164.232 34.7325C163.587 34.7325 163.017 34.7325 162.522 34.7325C161.922 34.7325 161.404 34.815 160.969 34.98C160.534 35.145 160.197 35.3925 159.957 35.7225C159.732 36.0675 159.619 36.5025 159.619 37.0275C159.619 37.4025 159.769 37.7325 160.069 38.0175C160.369 38.3175 160.804 38.5425 161.374 38.6925C161.959 38.8575 162.664 38.94 163.489 38.94ZM159.687 31.2C157.902 30.78 156.649 30.285 155.929 29.715C155.224 29.13 154.872 28.4775 154.872 27.7575C154.872 27.0975 155.059 26.46 155.434 25.845C155.809 25.215 156.289 24.66 156.874 24.18C157.474 23.7 158.082 23.37 158.697 23.19L163.624 25.845C163.024 26.04 162.567 26.295 162.252 26.61C161.952 26.91 161.802 27.2025 161.802 27.4875C161.802 27.7725 161.959 28.0275 162.274 28.2525C162.589 28.4625 163.077 28.5675 163.737 28.5675L159.687 31.2ZM168.732 20.265C169.362 20.265 169.954 20.19 170.509 20.04C171.064 19.89 171.507 19.6425 171.837 19.2975C172.182 18.9375 172.354 18.4425 172.354 17.8125C172.354 17.1075 172.099 16.56 171.589 16.17C171.079 15.78 170.472 15.585 169.767 15.585C169.182 15.585 168.574 15.66 167.944 15.81C167.329 15.96 166.812 16.2225 166.392 16.5975C165.972 16.9725 165.762 17.5125 165.762 18.2175C165.762 18.9375 166.047 19.4625 166.617 19.7925C167.187 20.1075 167.892 20.265 168.732 20.265ZM179.419 15.4275L175.594 11.2425C175.894 10.6575 176.397 10.0275 177.102 9.3525C177.822 8.6625 178.617 8.025 179.487 7.44C180.357 6.855 181.174 6.4275 181.939 6.1575C182.089 6.5325 182.299 7.0575 182.569 7.7325C182.854 8.3925 183.154 9.0675 183.469 9.7575C183.784 10.4475 184.054 11.025 184.279 11.49C183.829 11.67 183.364 11.8875 182.884 12.1425C182.419 12.3825 181.969 12.6675 181.534 12.9975C181.114 13.3125 180.717 13.6725 180.342 14.0775C179.982 14.4825 179.674 14.9325 179.419 15.4275Z" fill="#3DA9FC"/>
</svg>
