<svg width="375" height="545" viewBox="0 0 375 545" fill="none" xmlns="http://www.w3.org/2000/svg">
<circle cx="191.5" cy="237" r="100" fill="url(#paint0_linear_16_2)"/>
<circle cx="191.5" cy="237" r="99.5" stroke="url(#paint1_linear_16_2)" stroke-opacity="0.3"/>
<g filter="url(#filter0_f_16_2)">
<circle cx="184.5" cy="245" r="100" fill="#9ED0F7"/>
</g>
<mask id="mask0_16_2" style="mask-type:alpha" maskUnits="userSpaceOnUse" x="84" y="145" width="201" height="200">
<circle cx="184.5" cy="245" r="100" fill="black"/>
</mask>
<g mask="url(#mask0_16_2)">
<ellipse cx="190.5" cy="238" rx="100" ry="99" fill="url(#paint2_linear_16_2)"/>
</g>
<g filter="url(#filter1_bdiii_16_2)">
<circle cx="184.5" cy="245" r="100" fill="url(#paint3_linear_16_2)" fill-opacity="0.3" shape-rendering="crispEdges"/>
<circle cx="184.5" cy="245" r="99.5" stroke="url(#paint4_linear_16_2)" stroke-opacity="0.3" shape-rendering="crispEdges"/>
</g>
<g filter="url(#filter2_di_16_2)">
<path fill-rule="evenodd" clip-rule="evenodd" d="M170.641 195.071C171.697 195.199 172.717 195.529 173.643 196.041C174.569 196.553 175.382 197.238 176.036 198.056C176.69 198.874 177.172 199.809 177.455 200.809C177.738 201.808 177.815 202.852 177.684 203.881L175.781 218.69H197.273L199.43 201.923C199.696 199.846 200.8 197.956 202.497 196.671C204.195 195.385 206.347 194.809 208.481 195.068C210.615 195.328 212.556 196.402 213.876 198.055C215.196 199.708 215.788 201.803 215.522 203.881L213.619 218.69H226.392C228.542 218.69 230.605 219.522 232.125 221.002C233.646 222.483 234.5 224.491 234.5 226.584C234.5 228.678 233.646 230.686 232.125 232.166C230.605 233.647 228.542 234.478 226.392 234.478H211.592L208.889 255.529H223.689C225.84 255.529 227.902 256.361 229.422 257.841C230.943 259.322 231.797 261.33 231.797 263.423C231.797 265.517 230.943 267.525 229.422 269.005C227.902 270.486 225.84 271.317 223.689 271.317H206.862L204.711 288.084C204.444 290.162 203.341 292.051 201.643 293.337C199.946 294.622 197.793 295.199 195.659 294.939C193.526 294.679 191.585 293.605 190.265 291.952C188.944 290.3 188.352 288.204 188.619 286.127L190.516 271.317H169.03L166.878 288.084C166.612 290.162 165.508 292.051 163.811 293.337C162.113 294.622 159.961 295.199 157.827 294.939C155.693 294.679 153.753 293.605 152.432 291.952C151.112 290.3 150.52 288.204 150.786 286.127L152.678 271.317H142.608C140.458 271.317 138.395 270.486 136.875 269.005C135.354 267.525 134.5 265.517 134.5 263.423C134.5 261.33 135.354 259.322 136.875 257.841C138.395 256.361 140.458 255.529 142.608 255.529H154.705L157.408 234.478H145.311C143.16 234.478 141.098 233.647 139.578 232.166C138.057 230.686 137.203 228.678 137.203 226.584C137.203 224.491 138.057 222.483 139.578 221.002C141.098 219.522 143.16 218.69 145.311 218.69H159.435L161.592 201.923C161.723 200.894 162.061 199.9 162.587 198.998C163.112 198.096 163.815 197.304 164.656 196.666C165.496 196.029 166.457 195.559 167.484 195.284C168.511 195.008 169.584 194.932 170.641 195.061V195.071ZM192.554 255.529L195.257 234.478H173.759L171.057 255.529H192.554Z" fill="url(#paint5_linear_16_2)"/>
<path d="M170.038 197.013L170.4 197.056C171.203 197.154 171.976 197.404 172.675 197.791C173.374 198.178 173.985 198.693 174.474 199.305C174.963 199.916 175.321 200.612 175.531 201.353C175.74 202.093 175.797 202.865 175.7 203.626C175.7 203.626 175.7 203.627 175.7 203.627L173.797 218.435L173.508 220.69H175.781H197.273H199.032L199.257 218.945L201.413 202.178L201.413 202.178C201.61 200.643 202.427 199.232 203.705 198.265C204.984 197.296 206.616 196.856 208.24 197.054C209.863 197.251 211.326 198.067 212.313 199.303C213.299 200.537 213.735 202.092 213.538 203.626C213.538 203.626 213.538 203.626 213.538 203.626L211.635 218.435L211.346 220.69H213.619H226.392C228.029 220.69 229.588 221.324 230.73 222.435C231.87 223.545 232.5 225.039 232.5 226.584C232.5 228.13 231.87 229.623 230.73 230.733C229.588 231.845 228.029 232.478 226.392 232.478H211.592H209.832L209.608 234.224L206.905 255.274L206.616 257.529H208.889H223.689C225.326 257.529 226.886 258.163 228.027 259.274C229.167 260.384 229.797 261.878 229.797 263.423C229.797 264.969 229.167 266.462 228.027 267.572C226.886 268.684 225.326 269.317 223.689 269.317H206.862H205.102L204.878 271.063L202.727 287.83C202.53 289.365 201.713 290.775 200.436 291.742C199.157 292.711 197.525 293.151 195.901 292.954C194.277 292.756 192.815 291.94 191.827 290.704C190.841 289.47 190.406 287.915 190.603 286.381L190.603 286.381L192.5 271.571L192.789 269.317H190.516H169.03H167.27L167.046 271.063L164.895 287.83C164.895 287.83 164.895 287.83 164.895 287.83C164.698 289.365 163.881 290.775 162.603 291.742C161.324 292.711 159.693 293.151 158.069 292.954C156.445 292.756 154.982 291.94 153.995 290.704C153.009 289.47 152.573 287.915 152.77 286.381L152.77 286.38L154.662 271.571L154.95 269.317H152.678H142.608C140.971 269.317 139.412 268.684 138.27 267.572C137.13 266.462 136.5 264.969 136.5 263.423C136.5 261.878 137.13 260.384 138.27 259.274C139.412 258.163 140.971 257.529 142.608 257.529H154.705H156.465L156.689 255.784L159.392 234.733L159.681 232.478H157.408H145.311C143.674 232.478 142.114 231.845 140.973 230.733C139.833 229.623 139.203 228.13 139.203 226.584C139.203 225.039 139.833 223.545 140.973 222.435C142.114 221.324 143.674 220.69 145.311 220.69H159.435H161.194L161.419 218.945L163.576 202.178L163.576 202.176C163.673 201.414 163.923 200.677 164.315 200.005C164.706 199.333 165.232 198.74 165.864 198.26C166.497 197.78 167.223 197.425 168.002 197.215C168.665 197.038 169.353 196.969 170.038 197.013ZM192.554 257.529H194.314L194.538 255.784L197.24 234.733L197.53 232.478H195.257H173.759H172L171.776 234.224L169.073 255.274L168.784 257.529H171.057H192.554Z" stroke="white" stroke-opacity="0.1" stroke-width="4"/>
</g>
<path d="M116.878 405.837C115.408 407.097 113.683 408.162 111.703 409.032C109.723 409.887 107.525 410.315 105.11 410.315C102.755 410.315 100.768 409.835 99.1475 408.875C97.5275 407.9 96.305 406.587 95.48 404.937C94.655 403.272 94.2425 401.412 94.2425 399.357C94.2425 396.792 94.6625 394.355 95.5025 392.045C96.3575 389.735 97.55 387.687 99.08 385.902C100.61 384.117 102.41 382.715 104.48 381.695C106.565 380.675 108.838 380.165 111.298 380.165C112.813 380.165 114.26 380.375 115.64 380.795C117.02 381.2 118.22 381.83 119.24 382.685C120.275 383.525 121.003 384.605 121.423 385.925C120.763 386.48 119.945 387.102 118.97 387.792C118.01 388.467 117.043 389.112 116.068 389.727C115.093 390.342 114.245 390.845 113.525 391.235C113.525 391.115 113.458 390.882 113.323 390.537C113.203 390.177 113.015 389.795 112.76 389.39C112.505 388.985 112.168 388.64 111.748 388.355C111.328 388.055 110.825 387.905 110.24 387.905C109.325 387.905 108.493 388.19 107.743 388.76C107.008 389.315 106.37 390.057 105.83 390.987C105.305 391.902 104.9 392.915 104.615 394.025C104.33 395.135 104.188 396.237 104.188 397.332C104.188 398.442 104.375 399.372 104.75 400.122C105.125 400.857 105.785 401.225 106.73 401.225C107.255 401.225 107.818 401.135 108.418 400.955C109.018 400.775 109.648 400.505 110.308 400.145C110.968 399.77 111.635 399.312 112.31 398.772C112.865 399.252 113.45 399.92 114.065 400.775C114.695 401.615 115.265 402.492 115.775 403.407C116.285 404.322 116.653 405.132 116.878 405.837ZM127.649 410.338C125.099 410.338 123.036 409.85 121.461 408.875C119.886 407.885 119.099 406.197 119.099 403.812C119.099 402.117 119.466 400.692 120.201 399.537C120.951 398.382 121.949 397.46 123.194 396.77C124.454 396.08 125.856 395.585 127.401 395.285C128.961 394.97 130.559 394.812 132.194 394.812C132.824 394.812 133.446 394.865 134.061 394.97C134.691 395.06 135.246 395.187 135.726 395.352C136.221 395.502 136.559 395.667 136.739 395.847C136.739 395.682 136.716 395.367 136.671 394.902C136.641 394.437 136.544 394.085 136.379 393.845C136.094 393.44 135.704 393.125 135.209 392.9C134.729 392.675 134.031 392.562 133.116 392.562C132.471 392.562 131.774 392.675 131.024 392.9C130.289 393.11 129.614 393.387 128.999 393.732C128.384 394.062 127.919 394.407 127.604 394.767L122.046 390.447C123.456 389.067 125.294 387.95 127.559 387.095C129.824 386.225 132.156 385.79 134.556 385.79C137.631 385.79 140.024 386.322 141.734 387.388C143.444 388.437 144.299 390.32 144.299 393.035C144.299 393.875 144.209 394.775 144.029 395.735C143.864 396.68 143.661 397.602 143.421 398.502C143.241 399.192 143.091 399.86 142.971 400.505C142.851 401.15 142.791 401.75 142.791 402.305C142.791 402.71 142.859 402.98 142.994 403.115C143.129 403.25 143.324 403.317 143.579 403.317C143.924 403.317 144.216 403.28 144.456 403.205C144.711 403.115 144.944 402.995 145.154 402.845L146.166 408.762C145.851 409.077 145.281 409.407 144.456 409.752C143.631 410.083 142.596 410.248 141.351 410.248C140.016 410.248 138.989 409.888 138.269 409.167C137.564 408.447 137.211 407.382 137.211 405.972C136.881 406.707 136.274 407.412 135.389 408.087C134.504 408.747 133.401 409.287 132.081 409.707C130.776 410.128 129.299 410.338 127.649 410.338ZM130.889 403.88C131.429 403.88 132.021 403.812 132.666 403.677C133.326 403.527 133.934 403.347 134.489 403.137C135.044 402.912 135.441 402.687 135.681 402.462C135.681 402.297 135.704 402.05 135.749 401.72C135.809 401.375 135.861 401.12 135.906 400.955C135.666 400.835 135.201 400.73 134.511 400.64C133.821 400.535 133.146 400.482 132.486 400.482C132.021 400.482 131.534 400.52 131.024 400.595C130.514 400.655 130.034 400.76 129.584 400.91C129.149 401.06 128.789 401.255 128.504 401.495C128.234 401.735 128.099 402.02 128.099 402.35C128.099 402.86 128.301 403.242 128.706 403.497C129.111 403.752 129.839 403.88 130.889 403.88ZM156.357 411.733C154.332 411.733 152.607 411.508 151.182 411.058C149.757 410.623 148.632 410.143 147.807 409.617C146.967 409.092 146.442 408.695 146.232 408.425C146.397 408.11 146.727 407.615 147.222 406.94C147.717 406.25 148.279 405.5 148.909 404.69C149.554 403.88 150.184 403.13 150.799 402.44C151.429 401.735 151.954 401.217 152.374 400.887C152.989 401.442 153.627 401.99 154.287 402.53C154.962 403.07 155.637 403.512 156.312 403.857C156.987 404.202 157.624 404.375 158.224 404.375C158.569 404.375 158.892 404.33 159.192 404.24C159.507 404.135 159.762 403.977 159.957 403.767C160.152 403.542 160.249 403.25 160.249 402.89C160.249 402.365 159.897 401.862 159.192 401.382C158.487 400.902 157.677 400.43 156.762 399.965C155.907 399.515 155.134 398.967 154.444 398.322C153.754 397.662 153.207 396.897 152.802 396.027C152.397 395.157 152.194 394.182 152.194 393.102C152.194 391.677 152.494 390.432 153.094 389.367C153.709 388.302 154.534 387.425 155.569 386.735C156.619 386.03 157.804 385.505 159.124 385.16C160.444 384.815 161.824 384.642 163.264 384.642C165.034 384.642 166.722 384.882 168.327 385.362C169.947 385.842 171.214 386.48 172.129 387.275C171.949 387.59 171.582 388.1 171.027 388.805C170.472 389.51 169.819 390.275 169.069 391.1C168.334 391.925 167.577 392.69 166.797 393.395C166.407 392.825 165.814 392.285 165.019 391.775C164.239 391.265 163.467 391.01 162.702 391.01C162.432 391.01 162.154 391.032 161.869 391.077C161.584 391.107 161.314 391.175 161.059 391.28C160.819 391.385 160.624 391.527 160.474 391.707C160.324 391.887 160.249 392.112 160.249 392.382C160.249 392.757 160.474 393.11 160.924 393.44C161.389 393.77 162.124 394.19 163.129 394.7C163.864 395.06 164.659 395.577 165.514 396.252C166.369 396.912 167.104 397.737 167.719 398.727C168.334 399.702 168.642 400.85 168.642 402.17C168.642 404.195 168.057 405.92 166.887 407.345C165.717 408.77 164.194 409.857 162.319 410.608C160.459 411.358 158.472 411.733 156.357 411.733ZM177.041 410.113C176.606 410.188 176.006 410.248 175.241 410.293C174.476 410.338 173.681 410.36 172.856 410.36C171.881 410.36 170.988 410.323 170.178 410.248C169.368 410.188 168.791 410.083 168.446 409.932C168.761 409.122 169.151 408.057 169.616 406.737C170.066 405.402 170.546 403.895 171.056 402.215C171.581 400.52 172.091 398.742 172.586 396.882C173.156 394.797 173.688 392.667 174.183 390.492C174.693 388.302 175.166 386.187 175.601 384.147C176.036 382.092 176.426 380.225 176.771 378.545C176.891 378.5 177.311 378.425 178.031 378.32C178.766 378.215 179.606 378.102 180.551 377.982C181.511 377.862 182.418 377.757 183.273 377.667C184.143 377.577 184.781 377.532 185.186 377.532C185.126 378.657 184.998 379.955 184.803 381.425C184.608 382.895 184.346 384.515 184.016 386.285C183.686 388.04 183.281 389.93 182.801 391.955C183.446 391.445 184.181 391.002 185.006 390.627C185.846 390.252 186.716 389.967 187.616 389.772C188.516 389.562 189.371 389.457 190.181 389.457C192.026 389.457 193.368 389.847 194.208 390.627C195.063 391.392 195.491 392.532 195.491 394.047C195.491 394.947 195.326 396.08 194.996 397.445C194.681 398.81 194.268 400.257 193.758 401.787C193.263 403.302 192.738 404.772 192.183 406.197C191.628 407.607 191.118 408.822 190.653 409.842C189.978 409.947 189.296 410.03 188.606 410.09C187.916 410.15 187.233 410.18 186.558 410.18C185.028 410.18 183.663 410.053 182.463 409.797C182.748 409.152 183.108 408.29 183.543 407.21C183.978 406.13 184.413 405.005 184.848 403.835C185.283 402.665 185.651 401.6 185.951 400.64C186.251 399.68 186.401 398.99 186.401 398.57C186.401 398.12 186.281 397.737 186.041 397.422C185.801 397.107 185.441 396.95 184.961 396.95C184.601 396.95 184.241 397.002 183.881 397.107C183.521 397.212 183.161 397.355 182.801 397.535C182.456 397.715 182.111 397.925 181.766 398.165C181.436 398.405 181.121 398.66 180.821 398.93C180.506 400.04 180.183 401.135 179.853 402.215C179.523 403.295 179.186 404.33 178.841 405.32C178.511 406.31 178.188 407.217 177.873 408.042C177.573 408.852 177.296 409.543 177.041 410.113ZM199.722 388.22C199.752 387.83 199.834 387.26 199.969 386.51C200.104 385.745 200.254 384.942 200.419 384.102C200.599 383.262 200.764 382.512 200.914 381.852C201.064 381.192 201.169 380.757 201.229 380.547C202.939 380.412 204.859 380.3 206.989 380.21C209.134 380.105 211.294 380.052 213.469 380.052C215.149 380.052 216.777 380.09 218.352 380.165C219.942 380.24 221.374 380.375 222.649 380.57C222.229 382.16 221.779 383.622 221.299 384.957C220.834 386.277 220.429 387.252 220.084 387.882C219.814 387.882 219.447 387.882 218.982 387.882C218.532 387.882 218.029 387.882 217.474 387.882C216.934 387.867 216.409 387.86 215.899 387.86C215.389 387.845 214.947 387.83 214.572 387.815C214.452 388.37 214.279 389.165 214.054 390.2C213.829 391.22 213.574 392.382 213.289 393.687C213.019 394.992 212.727 396.357 212.412 397.782C212.112 399.192 211.812 400.58 211.512 401.945C211.227 403.295 210.964 404.532 210.724 405.657C210.499 406.782 210.312 407.705 210.162 408.425C210.012 409.145 209.922 409.565 209.892 409.685C209.097 409.805 208.092 409.91 206.877 410C205.662 410.105 204.454 410.18 203.254 410.225C202.069 410.285 201.102 410.315 200.352 410.315C200.547 409.445 200.772 408.432 201.027 407.277C201.297 406.122 201.589 404.885 201.904 403.565C202.234 402.245 202.564 400.895 202.894 399.515C203.239 398.135 203.584 396.777 203.929 395.442C204.274 394.107 204.604 392.855 204.919 391.685C205.114 390.98 205.294 390.32 205.459 389.705C205.639 389.075 205.804 388.505 205.954 387.995C205.474 388.04 204.979 388.077 204.469 388.107C203.974 388.122 203.464 388.145 202.939 388.175C202.429 388.19 201.904 388.205 201.364 388.22C200.824 388.22 200.277 388.22 199.722 388.22ZM227.229 410.338C224.679 410.338 222.616 409.85 221.041 408.875C219.466 407.885 218.679 406.197 218.679 403.812C218.679 402.117 219.046 400.692 219.781 399.537C220.531 398.382 221.529 397.46 222.774 396.77C224.034 396.08 225.436 395.585 226.981 395.285C228.541 394.97 230.139 394.812 231.774 394.812C232.404 394.812 233.026 394.865 233.641 394.97C234.271 395.06 234.826 395.187 235.306 395.352C235.801 395.502 236.139 395.667 236.319 395.847C236.319 395.682 236.296 395.367 236.251 394.902C236.221 394.437 236.124 394.085 235.959 393.845C235.674 393.44 235.284 393.125 234.789 392.9C234.309 392.675 233.611 392.562 232.696 392.562C232.051 392.562 231.354 392.675 230.604 392.9C229.869 393.11 229.194 393.387 228.579 393.732C227.964 394.062 227.499 394.407 227.184 394.767L221.626 390.447C223.036 389.067 224.874 387.95 227.139 387.095C229.404 386.225 231.736 385.79 234.136 385.79C237.211 385.79 239.604 386.322 241.314 387.388C243.024 388.437 243.879 390.32 243.879 393.035C243.879 393.875 243.789 394.775 243.609 395.735C243.444 396.68 243.241 397.602 243.001 398.502C242.821 399.192 242.671 399.86 242.551 400.505C242.431 401.15 242.371 401.75 242.371 402.305C242.371 402.71 242.439 402.98 242.574 403.115C242.709 403.25 242.904 403.317 243.159 403.317C243.504 403.317 243.796 403.28 244.036 403.205C244.291 403.115 244.524 402.995 244.734 402.845L245.746 408.762C245.431 409.077 244.861 409.407 244.036 409.752C243.211 410.083 242.176 410.248 240.931 410.248C239.596 410.248 238.569 409.888 237.849 409.167C237.144 408.447 236.791 407.382 236.791 405.972C236.461 406.707 235.854 407.412 234.969 408.087C234.084 408.747 232.981 409.287 231.661 409.707C230.356 410.128 228.879 410.338 227.229 410.338ZM230.469 403.88C231.009 403.88 231.601 403.812 232.246 403.677C232.906 403.527 233.514 403.347 234.069 403.137C234.624 402.912 235.021 402.687 235.261 402.462C235.261 402.297 235.284 402.05 235.329 401.72C235.389 401.375 235.441 401.12 235.486 400.955C235.246 400.835 234.781 400.73 234.091 400.64C233.401 400.535 232.726 400.482 232.066 400.482C231.601 400.482 231.114 400.52 230.604 400.595C230.094 400.655 229.614 400.76 229.164 400.91C228.729 401.06 228.369 401.255 228.084 401.495C227.814 401.735 227.679 402.02 227.679 402.35C227.679 402.86 227.881 403.242 228.286 403.497C228.691 403.752 229.419 403.88 230.469 403.88ZM261.877 403.835C258.937 403.835 256.657 403.49 255.037 402.8C253.417 402.095 252.284 401.172 251.639 400.032C251.009 398.892 250.694 397.67 250.694 396.365C250.694 393.995 251.332 392.067 252.607 390.582C253.897 389.082 255.599 387.987 257.714 387.297C259.829 386.592 262.124 386.24 264.599 386.24C268.064 386.24 270.562 386.885 272.092 388.175C273.637 389.465 274.409 391.212 274.409 393.417C274.409 395.667 273.854 397.572 272.744 399.132C271.634 400.677 270.134 401.847 268.244 402.642C266.354 403.437 264.232 403.835 261.877 403.835ZM256.274 421.228C253.979 421.228 251.969 421.025 250.244 420.62C248.534 420.23 247.207 419.563 246.262 418.618C245.302 417.673 244.822 416.375 244.822 414.725C244.822 413.3 245.189 412.04 245.924 410.945C246.659 409.865 247.649 408.95 248.894 408.2C250.139 407.435 251.527 406.835 253.057 406.4C254.587 405.965 256.147 405.687 257.737 405.567C258.652 405.492 259.537 405.44 260.392 405.41C261.262 405.365 262.492 405.342 264.082 405.342C266.227 405.342 267.884 405.815 269.054 406.76C270.239 407.705 270.832 409.13 270.832 411.035C270.832 412.88 270.442 414.448 269.662 415.738C268.882 417.028 267.817 418.078 266.467 418.888C265.117 419.698 263.564 420.29 261.809 420.665C260.069 421.04 258.224 421.228 256.274 421.228ZM257.489 415.94C258.299 415.94 259.064 415.835 259.784 415.625C260.519 415.43 261.112 415.123 261.562 414.703C262.027 414.298 262.259 413.788 262.259 413.173C262.259 412.828 262.154 412.55 261.944 412.34C261.734 412.13 261.449 411.973 261.089 411.868C260.729 411.778 260.324 411.733 259.874 411.733C259.439 411.733 258.892 411.733 258.232 411.733C257.587 411.733 257.017 411.733 256.522 411.733C255.922 411.733 255.404 411.815 254.969 411.98C254.534 412.145 254.197 412.393 253.957 412.723C253.732 413.068 253.619 413.503 253.619 414.028C253.619 414.403 253.769 414.733 254.069 415.018C254.369 415.318 254.804 415.543 255.374 415.693C255.959 415.858 256.664 415.94 257.489 415.94ZM253.687 408.2C251.902 407.78 250.649 407.285 249.929 406.715C249.224 406.13 248.872 405.477 248.872 404.757C248.872 404.097 249.059 403.46 249.434 402.845C249.809 402.215 250.289 401.66 250.874 401.18C251.474 400.7 252.082 400.37 252.697 400.19L257.624 402.845C257.024 403.04 256.567 403.295 256.252 403.61C255.952 403.91 255.802 404.202 255.802 404.487C255.802 404.772 255.959 405.027 256.274 405.252C256.589 405.462 257.077 405.567 257.737 405.567L253.687 408.2ZM262.732 397.265C263.362 397.265 263.954 397.19 264.509 397.04C265.064 396.89 265.507 396.642 265.837 396.297C266.182 395.937 266.354 395.442 266.354 394.812C266.354 394.107 266.099 393.56 265.589 393.17C265.079 392.78 264.472 392.585 263.767 392.585C263.182 392.585 262.574 392.66 261.944 392.81C261.329 392.96 260.812 393.222 260.392 393.597C259.972 393.972 259.762 394.512 259.762 395.217C259.762 395.937 260.047 396.462 260.617 396.792C261.187 397.107 261.892 397.265 262.732 397.265ZM273.419 392.427L269.594 388.242C269.894 387.657 270.397 387.027 271.102 386.353C271.822 385.662 272.617 385.025 273.487 384.44C274.357 383.855 275.174 383.427 275.939 383.157C276.089 383.532 276.299 384.057 276.569 384.732C276.854 385.392 277.154 386.068 277.469 386.758C277.784 387.447 278.054 388.025 278.279 388.49C277.829 388.67 277.364 388.887 276.884 389.142C276.419 389.382 275.969 389.667 275.534 389.997C275.114 390.312 274.717 390.672 274.342 391.077C273.982 391.482 273.674 391.932 273.419 392.427Z" fill="#3DA9FC"/>
<defs>
<filter id="filter0_f_16_2" x="-115.5" y="-55" width="600" height="600" filterUnits="userSpaceOnUse" color-interpolation-filters="sRGB">
<feFlood flood-opacity="0" result="BackgroundImageFix"/>
<feBlend mode="normal" in="SourceGraphic" in2="BackgroundImageFix" result="shape"/>
<feGaussianBlur stdDeviation="100" result="effect1_foregroundBlur_16_2"/>
</filter>
<filter id="filter1_bdiii_16_2" x="-165.5" y="-105" width="600" height="600" filterUnits="userSpaceOnUse" color-interpolation-filters="sRGB">
<feFlood flood-opacity="0" result="BackgroundImageFix"/>
<feGaussianBlur in="BackgroundImageFix" stdDeviation="15"/>
<feComposite in2="SourceAlpha" operator="in" result="effect1_backgroundBlur_16_2"/>
<feColorMatrix in="SourceAlpha" type="matrix" values="0 0 0 0 0 0 0 0 0 0 0 0 0 0 0 0 0 0 127 0" result="hardAlpha"/>
<feOffset dx="-50" dy="-50"/>
<feGaussianBlur stdDeviation="100"/>
<feComposite in2="hardAlpha" operator="out"/>
<feColorMatrix type="matrix" values="0 0 0 0 0.239216 0 0 0 0 0.662745 0 0 0 0 0.988235 0 0 0 0.15 0"/>
<feBlend mode="normal" in2="effect1_backgroundBlur_16_2" result="effect2_dropShadow_16_2"/>
<feBlend mode="normal" in="SourceGraphic" in2="effect2_dropShadow_16_2" result="shape"/>
<feColorMatrix in="SourceAlpha" type="matrix" values="0 0 0 0 0 0 0 0 0 0 0 0 0 0 0 0 0 0 127 0" result="hardAlpha"/>
<feOffset dx="-5" dy="-5"/>
<feGaussianBlur stdDeviation="10"/>
<feComposite in2="hardAlpha" operator="arithmetic" k2="-1" k3="1"/>
<feColorMatrix type="matrix" values="0 0 0 0 1 0 0 0 0 1 0 0 0 0 1 0 0 0 0.25 0"/>
<feBlend mode="normal" in2="shape" result="effect3_innerShadow_16_2"/>
<feColorMatrix in="SourceAlpha" type="matrix" values="0 0 0 0 0 0 0 0 0 0 0 0 0 0 0 0 0 0 127 0" result="hardAlpha"/>
<feOffset dy="4"/>
<feGaussianBlur stdDeviation="100"/>
<feComposite in2="hardAlpha" operator="arithmetic" k2="-1" k3="1"/>
<feColorMatrix type="matrix" values="0 0 0 0 0.239216 0 0 0 0 0.662745 0 0 0 0 0.988235 0 0 0 0.2 0"/>
<feBlend mode="normal" in2="effect3_innerShadow_16_2" result="effect4_innerShadow_16_2"/>
<feColorMatrix in="SourceAlpha" type="matrix" values="0 0 0 0 0 0 0 0 0 0 0 0 0 0 0 0 0 0 127 0" result="hardAlpha"/>
<feOffset dy="10"/>
<feGaussianBlur stdDeviation="25"/>
<feComposite in2="hardAlpha" operator="arithmetic" k2="-1" k3="1"/>
<feColorMatrix type="matrix" values="0 0 0 0 1 0 0 0 0 1 0 0 0 0 1 0 0 0 0.5 0"/>
<feBlend mode="normal" in2="effect4_innerShadow_16_2" result="effect5_innerShadow_16_2"/>
</filter>
<filter id="filter2_di_16_2" x="119.5" y="191" width="130" height="144" filterUnits="userSpaceOnUse" color-interpolation-filters="sRGB">
<feFlood flood-opacity="0" result="BackgroundImageFix"/>
<feColorMatrix in="SourceAlpha" type="matrix" values="0 0 0 0 0 0 0 0 0 0 0 0 0 0 0 0 0 0 127 0" result="hardAlpha"/>
<feOffset dy="25"/>
<feGaussianBlur stdDeviation="7.5"/>
<feComposite in2="hardAlpha" operator="out"/>
<feColorMatrix type="matrix" values="0 0 0 0 0.349841 0 0 0 0 0.667857 0 0 0 0 0.96141 0 0 0 0.1 0"/>
<feBlend mode="normal" in2="BackgroundImageFix" result="effect1_dropShadow_16_2"/>
<feBlend mode="normal" in="SourceGraphic" in2="effect1_dropShadow_16_2" result="shape"/>
<feColorMatrix in="SourceAlpha" type="matrix" values="0 0 0 0 0 0 0 0 0 0 0 0 0 0 0 0 0 0 127 0" result="hardAlpha"/>
<feOffset dx="-6" dy="-6"/>
<feGaussianBlur stdDeviation="2"/>
<feComposite in2="hardAlpha" operator="arithmetic" k2="-1" k3="1"/>
<feColorMatrix type="matrix" values="0 0 0 0 0.810911 0 0 0 0 0.950469 0 0 0 0 0.981104 0 0 0 0.5 0"/>
<feBlend mode="normal" in2="shape" result="effect2_innerShadow_16_2"/>
</filter>
<linearGradient id="paint0_linear_16_2" x1="106" y1="154" x2="291.5" y2="327" gradientUnits="userSpaceOnUse">
<stop stop-color="#96CCF5"/>
<stop offset="1" stop-color="#3DA9FC"/>
</linearGradient>
<linearGradient id="paint1_linear_16_2" x1="131.5" y1="161" x2="258" y2="311.5" gradientUnits="userSpaceOnUse">
<stop stop-color="#3DA9FC" stop-opacity="0.5"/>
<stop offset="0.62" stop-color="white"/>
<stop offset="0.77" stop-color="#3DA9FC" stop-opacity="0.32"/>
<stop offset="1" stop-color="#3DA9FC"/>
</linearGradient>
<linearGradient id="paint2_linear_16_2" x1="91.5" y1="337" x2="287.562" y2="137.099" gradientUnits="userSpaceOnUse">
<stop stop-color="#96CCF5"/>
<stop offset="0.495" stop-color="#6ABBF9" stop-opacity="0.604"/>
<stop offset="1" stop-color="#3DA9FC" stop-opacity="0.2"/>
</linearGradient>
<linearGradient id="paint3_linear_16_2" x1="335.144" y1="88.3564" x2="67.8563" y2="355.644" gradientUnits="userSpaceOnUse">
<stop stop-color="#D2E8F9"/>
<stop offset="0.469859" stop-color="white"/>
<stop offset="1" stop-color="#D2E8F9" stop-opacity="0"/>
</linearGradient>
<linearGradient id="paint4_linear_16_2" x1="124.5" y1="169" x2="251" y2="319.5" gradientUnits="userSpaceOnUse">
<stop stop-color="#3DA9FC" stop-opacity="0.2"/>
<stop offset="0.06" stop-color="#3DA9FC" stop-opacity="0.03"/>
<stop offset="0.35" stop-color="white" stop-opacity="0.3"/>
<stop offset="0.525" stop-color="white" stop-opacity="0.03"/>
<stop offset="0.925" stop-color="#3DA9FC" stop-opacity="0"/>
<stop offset="1" stop-color="#3DA9FC" stop-opacity="0.3"/>
</linearGradient>
<linearGradient id="paint5_linear_16_2" x1="184.5" y1="195" x2="184.5" y2="295" gradientUnits="userSpaceOnUse">
<stop stop-color="#EDFCFF"/>
<stop offset="1" stop-color="#EDFCFF"/>
</linearGradient>
</defs>
</svg>
